<?xml version="1.0" standalone="no"?>
<!DOCTYPE svg PUBLIC "-//W3C//DTD SVG 20010904//EN"
 "http://www.w3.org/TR/2001/REC-SVG-20010904/DTD/svg10.dtd">
<svg version="1.0" xmlns="http://www.w3.org/2000/svg"
 width="240.000000pt" height="212.000000pt" viewBox="0 0 240.000000 212.000000"
 preserveAspectRatio="xMidYMid meet">

<g transform="translate(0.000000,212.000000) scale(0.100000,-0.100000)"
fill="#16BEF4" stroke="none">
<path d="M2100 1719 c-19 -12 -49 -26 -65 -30 -17 -5 -35 -19 -40 -31 -9 -20
-18 -23 -70 -25 -64 -2 -88 -19 -101 -73 -16 -63 -61 -77 -296 -90 -85 -5
-175 -15 -203 -24 -49 -15 -114 -56 -405 -255 -74 -51 -218 -149 -320 -218
-203 -136 -240 -174 -263 -263 -18 -67 -7 -157 28 -237 63 -141 198 -300 304
-357 64 -34 162 -46 213 -26 32 13 660 430 841 559 107 76 143 130 207 306 27
76 85 171 116 191 15 10 33 14 53 9 24 -5 36 0 65 25 22 19 36 41 36 55 0 27
15 41 52 50 15 4 30 14 33 23 3 10 23 30 46 47 22 16 42 39 45 51 14 55 -174
334 -224 334 -10 0 -33 -10 -52 -21z m71 -28 c5 -48 12 -69 32 -100 35 -52 51
-84 38 -77 -15 9 -100 -36 -101 -54 0 -10 -7 -7 -21 10 -28 33 -72 120 -65
128 3 3 -2 14 -11 25 -10 11 -13 17 -6 14 6 -4 13 -3 15 3 5 16 92 67 106 62
6 -2 12 -7 13 -11z m64 -82 c43 -58 57 -87 35 -74 -11 7 -90 120 -90 129 0 15
14 1 55 -55z m-285 -34 c0 -41 74 -168 161 -277 21 -25 21 -58 0 -58 -5 0 -37
26 -70 58 -49 46 -59 61 -55 80 5 17 2 22 -13 22 -24 0 -60 61 -69 118 -5 35
-4 42 10 42 10 0 14 5 11 10 -11 18 -45 -9 -45 -36 0 -64 110 -239 179 -285
58 -38 80 -38 88 2 3 19 9 26 13 19 12 -20 -1 -50 -28 -64 -28 -15 -74 -5
-102 21 -13 12 -13 13 5 7 11 -4 -12 23 -52 60 -111 104 -160 222 -117 284 11
15 25 22 50 22 30 0 34 -3 34 -25z m78 -28 c20 -46 109 -175 149 -215 17 -17
16 -29 -2 -35 -37 -15 -219 243 -202 286 12 31 32 17 55 -36z m-189 -103 c19
-52 116 -193 159 -231 21 -18 32 -32 26 -33 -19 0 -81 -101 -114 -185 -51
-132 -102 -225 -143 -260 -42 -36 -748 -516 -849 -577 -96 -59 -163 -52 -282
27 -104 69 -240 274 -266 399 -27 131 11 200 167 308 289 199 753 509 778 518
48 18 23 -12 -38 -47 -31 -17 -120 -76 -197 -130 -77 -54 -198 -138 -268 -186
-70 -48 -131 -93 -137 -99 -5 -6 82 51 195 127 369 250 422 285 431 285 5 0 8
-16 7 -36 -1 -39 12 -56 63 -82 18 -9 43 -34 55 -55 12 -21 35 -47 52 -57 19
-12 33 -30 37 -49 10 -48 131 -161 170 -161 40 0 55 25 48 78 -3 26 -10 51
-14 56 -5 6 -9 22 -9 37 0 34 -21 51 -79 65 -40 11 -43 10 -26 -2 10 -8 29
-14 42 -14 13 0 29 -10 38 -24 15 -22 37 -153 28 -168 -9 -16 -33 -6 -93 38
-47 36 -67 59 -85 100 -16 36 -33 58 -55 69 -18 9 -36 29 -42 45 -6 18 -29 41
-60 61 l-50 33 6 45 c3 25 13 52 22 61 13 13 19 11 52 -23 42 -44 116 -94 110
-75 -3 7 -15 18 -27 24 -32 16 -114 94 -107 101 3 4 79 10 169 14 89 5 182 15
207 23 64 20 65 20 79 -20z"/>
<path d="M1490 1398 c19 -12 49 -22 65 -22 27 -1 30 -4 32 -36 6 -99 9 -102
96 -114 49 -6 57 -14 112 -96 l45 -68 -26 -58 c-14 -33 -33 -75 -42 -94 -24
-55 -88 -136 -125 -159 -41 -25 -47 -26 -47 -6 0 22 -38 39 -56 24 -19 -15
-18 -56 2 -67 19 -11 -2 -28 -176 -147 -134 -91 -390 -274 -405 -288 -56 -55
667 446 736 510 27 25 59 75 97 153 39 80 61 115 71 112 10 -3 12 2 7 22 -6
23 1 34 44 76 28 28 47 50 43 50 -16 0 -76 -49 -93 -76 l-17 -25 -60 73 c-50
62 -64 73 -93 76 -19 1 -44 4 -55 7 -25 5 -49 66 -40 96 10 30 -22 61 -55 54
-18 -4 -31 -1 -40 10 -7 8 -22 15 -34 15 -17 0 -15 -4 14 -22z m88 -662 c3
-12 -1 -17 -10 -14 -7 3 -15 13 -16 22 -3 12 1 17 10 14 7 -3 15 -13 16 -22z"/>
<path d="M1720 1295 c0 -9 5 -15 11 -13 6 2 11 8 11 13 0 5 -5 11 -11 13 -6 2
-11 -4 -11 -13z"/>
<path d="M1508 1264 c-15 -14 20 -67 57 -86 15 -8 14 -4 -7 18 -15 16 -31 39
-35 52 -5 13 -12 20 -15 16z"/>
<path d="M1230 1223 c0 -8 5 -13 12 -11 18 6 21 25 3 25 -8 0 -15 -7 -15 -14z"/>
<path d="M1185 1151 c-3 -6 1 -11 9 -11 24 0 31 -22 11 -37 -17 -12 -17 -13
-2 -13 10 0 20 7 24 16 11 29 -27 69 -42 45z"/>
<path d="M1412 1058 c-6 -6 -12 -17 -12 -22 0 -6 7 -2 15 8 14 19 15 19 36 0
21 -19 21 -19 18 1 -5 23 -39 31 -57 13z"/>
<path d="M1237 1004 c-9 -10 4 -34 18 -34 8 0 17 5 20 11 4 6 0 9 -11 7 -11
-2 -18 2 -16 10 2 13 -1 15 -11 6z"/>
<path d="M540 861 c-95 -66 -134 -103 -128 -123 3 -8 12 0 22 19 10 21 50 55
106 93 50 33 90 63 90 65 0 7 1 8 -90 -54z"/>
<path d="M1814 888 c-43 -85 -97 -149 -162 -194 -160 -114 -372 -267 -372
-270 0 -7 236 151 345 231 117 86 171 149 204 238 14 37 5 34 -15 -5z"/>
<path d="M1071 878 c0 -9 -11 -24 -23 -32 l-22 -16 22 0 c25 0 36 19 29 47 -4
16 -5 16 -6 1z"/>
<path d="M627 833 c-4 -3 -7 -11 -7 -17 0 -6 5 -5 12 2 6 6 9 14 7 17 -3 3 -9
2 -12 -2z"/>
<path d="M1147 753 c-5 -7 -5 -17 -2 -23 8 -13 32 -13 40 0 3 5 0 7 -9 4 -9
-3 -16 2 -18 13 -2 13 -6 15 -11 6z"/>
<path d="M870 730 c0 -5 5 -10 10 -10 6 0 10 5 10 10 0 6 -4 10 -10 10 -5 0
-10 -4 -10 -10z"/>
<path d="M491 716 c2 -2 15 -9 29 -15 24 -11 24 -11 6 3 -16 13 -49 24 -35 12z"/>
<path d="M1246 694 c-36 -35 -7 -104 43 -104 24 0 71 41 71 62 0 8 -7 24 -16
36 -18 26 -74 30 -98 6z m72 -6 c27 -27 7 -78 -29 -78 -19 0 -49 25 -49 41 0
14 38 49 53 49 7 0 18 -5 25 -12z"/>
<path d="M590 642 c0 -4 14 -21 30 -37 17 -16 30 -26 30 -22 0 3 -13 20 -30
37 -16 17 -30 27 -30 22z"/>
<path d="M555 604 c6 -5 23 -20 40 -34 29 -24 29 -24 10 -2 -11 13 -29 28 -40
34 -11 6 -15 6 -10 2z"/>
<path d="M657 597 c4 -6 21 -31 39 -54 57 -75 118 -193 105 -206 -14 -14 -15
-77 -1 -77 6 0 10 3 11 8 1 15 7 40 14 61 11 36 -120 259 -162 275 -9 4 -11 1
-6 -7z"/>
<path d="M950 581 c0 -21 26 -36 35 -21 4 6 -1 10 -10 10 -11 0 -15 5 -11 15
3 8 1 15 -4 15 -6 0 -10 -9 -10 -19z"/>
<path d="M443 523 c17 -101 244 -334 326 -333 22 0 17 5 -30 31 -31 17 -74 49
-95 71 -22 23 -33 38 -26 34 6 -4 12 -3 12 3 0 5 -7 14 -14 18 -8 5 -21 26
-28 48 -9 26 -20 41 -33 43 -14 2 -16 0 -7 -6 7 -4 17 -24 22 -42 l10 -34 -36
35 c-39 37 -84 117 -84 149 0 11 -5 20 -11 20 -8 0 -10 -13 -6 -37z"/>
<path d="M571 483 c29 -32 63 -82 75 -110 26 -59 40 -69 30 -23 -7 37 -76 140
-112 169 -50 39 -46 21 7 -36z"/>
<path d="M418 500 c18 -64 82 -160 154 -231 88 -87 161 -130 222 -128 l41 1
-35 7 c-66 13 -134 54 -205 125 -65 65 -155 182 -155 204 0 4 -7 17 -15 28
-13 18 -14 18 -7 -6z"/>
<path d="M880 466 c0 -8 4 -17 9 -20 5 -4 7 3 4 14 -6 23 -13 26 -13 6z"/>
</g>
</svg>
